PathFileType	4	(X/Y/Z)	15_1_17_p1_0-685_filt_butterworth.trc
DataRate	CameraRate	NumFrames	NumMarkers	Units	OrigDataRate	OrigDataStartFrame	OrigNumFrames
56.0	56.0	6	27	m	56.0	513	685
Frame#	Time	RHip			RKnee			RAnkle			RBigToe			RSmallToe			RHeel			LHip			LKnee			LAnkle			LBigToe			LSmallToe			LHeel			Neck			Head			Nose			RShoulder			RElbow			RWrist			RThumb			RIndex			RPinky			LShoulder			LElbow			LWrist			LThumb			LIndex			LPinky			
		X1	Y1	Z1	X2	Y2	Z2	X3	Y3	Z3	X4	Y4	Z4	X5	Y5	Z5	X6	Y6	Z6	X7	Y7	Z7	X8	Y8	Z8	X9	Y9	Z9	X10	Y10	Z10	X11	Y11	Z11	X12	Y12	Z12	X13	Y13	Z13	X14	Y14	Z14	X15	Y15	Z15	X16	Y16	Z16	X17	Y17	Z17	X18	Y18	Z18	X19	Y19	Z19	X20	Y20	Z20	X21	Y21	Z21	X22	Y22	Z22	X23	Y23	Z23	X24	Y24	Z24	X25	Y25	Z25	X26	Y26	Z26	X27	Y27	Z27	
513	9.160714285714286	0.24887595490621842	0.3636027600090525	1.1130113770371084	0.2238846618281674	0.2291437641277208	1.476947587491778	0.2588546611793244	0.19566834615843176	1.9441801768888247	0.23143478862467887	-0.004561942495400402	1.8744654073505784	0.2999853626814696	0.03203239176150781	1.8879402933329423	0.25770804866237773	0.26592733940286345	2.0534054083180737	0.0640168661142644	0.34306686732103076	1.1096534894676717	0.06881422152707896	0.2880588712675922	1.5307845706413512	0.07576972616560594	0.19954482044527386	1.9676075615953401	0.07789778852987127	0.009530656033509251	1.8740001088592526	0.041048703436047364	0.03286122166294154	1.8925353628345438	0.09795610338483822	0.227838882865694	2.023124402073878	0.1470840706854721	0.33411245632771835	0.5474116773658863	0.12398006243979456	0.26662874700653766	0.28767491832306413	0.14309584344519763	0.19621134722686573	0.4068042421926735	0.2859725054784069	0.3158377697569953	0.5993002176688461	0.26425619887142276	0.1973372852985097	0.8044232945433704	0.17584348691351492	0.18603039104156752	0.6333281085506093	0.13451380245786929	0.2362066402548501	0.528827503081842	0.14034747365684894	0.1911733501976349	0.5089169765950188	0.14861945941417243	0.12511529544078462	0.5423187462731744	-0.0007029319245771906	0.3332990099587101	0.6124290408459832	-0.03081520164111934	0.3464113204716128	0.8958833428993168	0.03999922989059666	0.24854345111105577	1.1076837193276647	0.09074576963429344	0.25701074684873715	1.2229858635101916	0.0836446713641194	0.2532653923326126	1.239391612945876	0.005403153278355089	0.2523650775431676	1.2353986524349287
514	9.178571428571429	0.24857914872623244	0.36371538213083987	1.111466625908794	0.22385049662857182	0.23132887043129885	1.4774445202787387	0.2588582257107108	0.19563011012799567	1.944184603372205	0.23119029331670696	-0.0033074039695108292	1.8756505234727778	0.3002677618969672	0.03215713649703477	1.8848859589413212	0.2578097909816391	0.26608930441317413	2.053490522397207	0.06432180133019337	0.3430052588439626	1.108102229535502	0.06872706958917454	0.2881980643163144	1.5298924945301078	0.07583824656705294	0.1994053913721712	1.964703966607197	0.07792605003401384	0.009533690657117509	1.8740779481100374	0.040876307551156066	0.03345017855800512	1.8923590245639765	0.09746792508601848	0.22787500058196386	2.023167414879816	0.14783138720124014	0.3343163786963604	0.5477653252357776	0.12638026212779335	0.26192197744372664	0.2876017868486396	0.1450947179247508	0.1963073925754239	0.4090846245593273	0.2865318817771803	0.3165670487922183	0.6007983695670944	0.26713591715025464	0.200390210546997	0.8074339730486835	0.1785387887530747	0.1880763137138909	0.6327680763300924	0.13633975526577605	0.23545066453349237	0.5270060903613579	0.14079276110539862	0.18688054198616338	0.5064985908611438	0.14898374522546964	0.12683631370136758	0.5427958907581223	-0.0007323310209476515	0.3309781086305214	0.6111711451159273	-0.031037813084254684	0.3457051106980523	0.8957676271395955	0.04129306119676101	0.24424037658909925	1.1051397763071271	0.09042993652279714	0.257029125105969	1.2213023023545706	0.08365044468066868	0.2532714465770109	1.2393918449038606	0.005387396607008816	0.25247311319060417	1.235563284181143
515	9.196428571428571	0.24840072210885003	0.36380498972414915	1.1102895839645182	0.22357377296388264	0.23442260852651103	1.476409502613106	0.25881803236275286	0.19553884616187914	1.9440735999238998	0.23073366498154316	-0.0011308485211951674	1.8777268922305272	0.30004290280595947	0.0324844278869721	1.884938422300155	0.25776049399746387	0.2662754022500513	2.05351538855506	0.0643666778028139	0.342573137844291	1.1075007312545386	0.06869201402137377	0.2882050199010953	1.5299298426749468	0.07615221306491475	0.19905775273142184	1.9600861124928313	0.07797654054311517	0.00952878341749234	1.8741512745332136	0.04074543572311533	0.033965065531491846	1.89023171209102	0.09596493843216167	0.22720482182301371	2.0226752357675615	0.14785315058791457	0.33414140837367445	0.5477832686052162	0.12765335474714654	0.25869731919383515	0.28760010029077293	0.14629038999512106	0.19573269677153113	0.41054066336709316	0.2875237419344293	0.31652363723109145	0.6023690019156603	0.2702039970177508	0.20250247175772446	0.8110756401993114	0.17930980353963683	0.18473709009083555	0.6313620131663432	0.13707021625106075	0.23513051851680458	0.524471064949614	0.14012162664618705	0.18503865192728725	0.504330398627312	0.14926126761298866	0.12825102997311155	0.5419906761714722	-0.0008520847403417042	0.3301331005499589	0.6108311380589712	-0.03112474587224961	0.34516328206131663	0.8957208632105905	0.04223935964911081	0.24112706448151483	1.1032080660322565	0.09019868195427927	0.2570445703052754	1.2200625730302197	0.08366231949672429	0.25327758656360133	1.2393892809250098	0.00537524444164704	0.25257408028186645	1.2356562036800265
516	9.214285714285714	0.2483152945862982	0.363787668880392	1.109837149034032	0.2230741504287211	0.23696134510215017	1.4746264771550068	0.2587722225344448	0.19548364637317417	1.9439339729535279	0.23044306731743266	0.00015713900907073745	1.878923552337847	0.2994117565719537	0.03290433511907279	1.8864365971639823	0.25755523428758564	0.2665792783687255	2.053414891014034	0.06427611423284443	0.3420638527011858	1.107151228020014	0.06868777824160316	0.28818350035450996	1.5301115888641699	0.07623784564472283	0.19890314968212064	1.9571327370426048	0.07801878455400296	0.009517557264809346	1.874145960245734	0.04071176360217224	0.03424045017024956	1.8878122664035173	0.09398957624725138	0.226085139927925	2.0218093837738134	0.14804148465050998	0.3329264534768239	0.5476277489179597	0.12825046179555258	0.2567427321803849	0.28762490837930876	0.14726292773952515	0.19319840364172639	0.410291268639788	0.288769783257746	0.317156647143793	0.6037242068795962	0.27197639805358537	0.2026848316224355	0.8137279220079332	0.18007012303394218	0.17917193846228158	0.6293007407156505	0.13712821162685315	0.23516047090840891	0.5229267640419575	0.14013015000992146	0.1839435935548455	0.5028252448347078	0.1495334925093263	0.12832078663822424	0.5413163848274867	-0.000999773396288353	0.3301195089324031	0.6108594025423488	-0.03111083815837417	0.34491431983242077	0.8956995482340011	0.04253169182407664	0.24009733103673597	1.1024769044196174	0.09011527712189327	0.2570488546597631	1.2196406284926977	0.08367794678450079	0.25328111546525356	1.239393726524231	0.005356593619972699	0.25259908250363716	1.2356758785007762
517	9.232142857142858	0.24832768592832316	0.3636222561326519	1.1098098854899023	0.222914354809653	0.23822657554253068	1.4743203676172862	0.25875000562742806	0.19551589741908165	1.943868778434458	0.23039245442978065	0.0003923712213508227	1.8791164019570465	0.2989946650216005	0.03317840629604751	1.887892270640377	0.2573519275891477	0.2668441258874353	2.0530309040321977	0.0642507569361987	0.3416081642930438	1.1067853942070371	0.06869621187395804	0.28817120209023533	1.5301663070804725	0.07580981978133904	0.20006818866488707	1.9575098853666983	0.07802710392720938	0.009515978991149266	1.8740360677289756	0.040786157559004	0.03417037457610077	1.8869374028186237	0.09264943245565914	0.225255981001422	2.021097378190534	0.14884831552536942	0.3297655459530452	0.54730100579773	0.1288108935903366	0.25487434158775285	0.2876118056286044	0.14827136082474632	0.18932729397788622	0.40941028971451154	0.29030046311443314	0.3186068138953937	0.6048109364469406	0.2723770386107185	0.20169064176364754	0.8146948002206504	0.18206357285360947	0.17593908810970885	0.6273577964039145	0.13738844595971855	0.2354774472518061	0.5227156954037241	0.14202410244393285	0.18090272521961961	0.5011411603116576	0.14972551945429724	0.1262969623852402	0.5414486717227373	-0.0009286836112757243	0.3302056207739683	0.6108926204531718	-0.031071707287406082	0.34482808262957965	0.8956830010756633	0.0424500668514947	0.2402306862696385	1.1024666458850105	0.09011766811245439	0.2570465290585389	1.2196796302894082	0.08368685544892118	0.25328565280652543	1.2394161144668958	0.00531919730190873	0.25254692787867317	1.2356703990772318
518	9.25	0.2484153302270496	0.3633087262855457	1.1097795568406776	0.2237889819739693	0.23862219093971365	1.4758561095845537	0.2587454279617131	0.19561555911724238	1.943895804965724	0.23042649059351666	0.00022523912527939283	1.8789702070487293	0.2991814659081474	0.033212384200784394	1.8894543311784782	0.2573284325920281	0.26675881810004387	2.0524121881932333	0.06426669966320363	0.34148162961697504	1.107562839097421	0.0686932882786075	0.2881734088927381	1.5301308930043047	0.0746987123436565	0.20349233143769696	1.9609621532698467	0.0780135329244392	0.009543201644112835	1.8738914394607928	0.04095705615169586	0.03367932799278592	1.8877265427524752	0.09235580498389556	0.22507212113651795	2.020867287137999	0.15005865793402032	0.32548207433518783	0.5469024548638353	0.12927038778300529	0.25319111096174746	0.2875631289733644	0.1490671006073079	0.18621080830796613	0.40919843760994157	0.29212692993412637	0.3191176579590042	0.6054042663308601	0.2725312066324062	0.20099219477136993	0.8146852010755717	0.18480160649046457	0.17565912260839825	0.6261842063304903	0.13841505821598193	0.236182293008423	0.5232092837060114	0.1453283351460831	0.17535652871527946	0.49844966382636396	0.1503977652854088	0.1231085067975669	0.5419028341044647	-9.617947919800284e-05	0.3302525397963245	0.6109438297389648	-0.031027630328308534	0.34478017855483195	0.8956933745242686	0.04232791188295004	0.24050133664073867	1.1025918899889662	0.09013099410432855	0.2570394774592405	1.2197838979448496	0.0836793120863243	0.25329602298650156	1.239453382168075	0.005270988512973326	0.252480012975704	1.2356751847427923
